<svg width="155" height="35" viewBox="0 0 155 35" fill="none" xmlns="http://www.w3.org/2000/svg">
<path d="M35.52 1.24C36.2667 1.34667 36.7733 1.57333 37.04 1.92C37.3333 2.26667 37.48 2.72 37.48 3.28C37.48 5.12 36.4933 5.97333 34.52 5.84L33.12 5.72C31.5467 5.58667 29.9733 5.48 28.4 5.4C26.8533 5.32 25.2267 5.28 23.52 5.28H21.72C21.4 9.22667 21.0667 12.8267 20.72 16.08L27.6 15.96C28.5867 15.96 29.24 16.1333 29.56 16.48C29.9067 16.8267 30.08 17.2933 30.08 17.88C30.08 18.7867 29.8133 19.5067 29.28 20.04C28.7467 20.5467 27.9867 20.8 27 20.8H20.16L19.92 22.52C19.36 26.92 18.16 30.0533 16.32 31.92C14.5067 33.7867 12 34.72 8.8 34.72C6.98667 34.72 5.32 34.3333 3.8 33.56C2.28 32.76 1.16 31.8 0.440001 30.68C0.146668 30.2267 9.13627e-07 29.68 9.13627e-07 29.04C9.13627e-07 28.4 0.146668 27.84 0.440001 27.36C0.760001 26.88 1.14667 26.64 1.6 26.64C1.92 26.64 2.22667 26.7467 2.52 26.96C2.84 27.1733 3.24 27.5867 3.72 28.2C5 29.88 6.58667 30.72 8.48 30.72C10 30.72 11.2667 30.1067 12.28 28.88C13.32 27.6267 13.9867 25.6667 14.28 23L14.52 20.8H12.6C11.9867 20.8 11.4533 20.6267 11 20.28C10.5733 19.9333 10.36 19.44 10.36 18.8C10.36 17.9733 10.5733 17.3467 11 16.92C11.4267 16.4667 12.0533 16.24 12.88 16.24C13.6267 16.24 14.36 16.2267 15.08 16.2C15.4 13.2667 15.7467 9.70667 16.12 5.52C13.24 5.78667 11.2133 6.25333 10.04 6.92C8.86667 7.58667 8.28 8.57333 8.28 9.88C8.28 10.7867 8.54667 11.6533 9.08 12.48C9.24 12.72 9.32 12.96 9.32 13.2C9.32 13.68 9.05333 14.1067 8.52 14.48C7.98667 14.8267 7.38667 15 6.72 15C6 15 5.38667 14.7867 4.88 14.36C4.56 14.0933 4.25333 13.5467 3.96 12.72C3.66667 11.8933 3.52 10.9733 3.52 9.96C3.52 6.65333 5.21333 4.25333 8.6 2.76C12.0133 1.26667 16.9867 0.519999 23.52 0.519999C28.0533 0.519999 32.0533 0.759999 35.52 1.24ZM43.7166 34.6C41.3432 34.6 39.1966 34.0667 37.2766 33C35.3832 31.9333 33.8766 30.3733 32.7566 28.32C31.6366 26.24 31.0766 23.76 31.0766 20.88C31.0766 16.8267 31.8099 13.2533 33.2766 10.16C34.7699 7.06667 36.7832 4.68 39.3166 3C41.8766 1.32 44.7032 0.48 47.7966 0.48C50.1699 0.48 52.3032 1.01333 54.1966 2.08C56.1166 3.14667 57.6366 4.72 58.7566 6.8C59.8766 8.85333 60.4366 11.32 60.4366 14.2C60.4366 18.2533 59.6899 21.8267 58.1966 24.92C56.7299 28.0133 54.7166 30.4 52.1566 32.08C49.6232 33.76 46.8099 34.6 43.7166 34.6ZM44.1166 29.88C46.1966 29.88 48.0232 29.24 49.5966 27.96C51.1966 26.68 52.4232 24.9067 53.2766 22.64C54.1299 20.3467 54.5566 17.76 54.5566 14.88C54.5566 11.7067 53.8899 9.30667 52.5566 7.68C51.2232 6.02667 49.5032 5.2 47.3966 5.2C45.3432 5.2 43.5299 5.84 41.9566 7.12C40.3832 8.37333 39.1566 10.1467 38.2766 12.44C37.3966 14.7067 36.9566 17.2933 36.9566 20.2C36.9566 23.3733 37.6232 25.7867 38.9566 27.44C40.2899 29.0667 42.0099 29.88 44.1166 29.88ZM76.3728 34.6C73.9995 34.6 71.8528 34.0667 69.9328 33C68.0395 31.9333 66.5328 30.3733 65.4128 28.32C64.2928 26.24 63.7328 23.76 63.7328 20.88C63.7328 16.8267 64.4661 13.2533 65.9328 10.16C67.4261 7.06667 69.4395 4.68 71.9728 3C74.5328 1.32 77.3595 0.48 80.4528 0.48C82.8261 0.48 84.9595 1.01333 86.8528 2.08C88.7728 3.14667 90.2928 4.72 91.4128 6.8C92.5328 8.85333 93.0928 11.32 93.0928 14.2C93.0928 18.2533 92.3461 21.8267 90.8528 24.92C89.3861 28.0133 87.3728 30.4 84.8128 32.08C82.2795 33.76 79.4661 34.6 76.3728 34.6ZM76.7728 29.88C78.8528 29.88 80.6795 29.24 82.2528 27.96C83.8528 26.68 85.0795 24.9067 85.9328 22.64C86.7861 20.3467 87.2128 17.76 87.2128 14.88C87.2128 11.7067 86.5461 9.30667 85.2128 7.68C83.8795 6.02667 82.1595 5.2 80.0528 5.2C77.9995 5.2 76.1861 5.84 74.6128 7.12C73.0395 8.37333 71.8128 10.1467 70.9328 12.44C70.0528 14.7067 69.6128 17.2933 69.6128 20.2C69.6128 23.3733 70.2795 25.7867 71.6128 27.44C72.9461 29.0667 74.6661 29.88 76.7728 29.88ZM106.149 34.6C104.602 34.6 102.856 34.4667 100.909 34.2C99.8424 34.0667 99.1091 33.7867 98.7091 33.36C98.3091 32.9333 98.1357 32.24 98.1891 31.28C98.3757 28.64 98.8157 25.3867 99.5091 21.52C100.202 17.6267 101.042 13.88 102.029 10.28C102.216 9.61333 102.589 9.14667 103.149 8.88C103.709 8.61333 104.442 8.48 105.349 8.48C106.976 8.48 107.789 8.93333 107.789 9.84C107.789 10.2133 107.709 10.64 107.549 11.12C106.856 13.2533 106.162 16.12 105.469 19.72C104.776 23.2933 104.282 26.7067 103.989 29.96C104.789 30.04 105.696 30.08 106.709 30.08C111.376 30.08 114.856 28.6667 117.149 25.84C119.469 23.0133 120.629 19.24 120.629 14.52C120.629 11.3467 119.722 8.89333 117.909 7.16C116.096 5.42667 113.536 4.56 110.229 4.56C108.096 4.56 105.976 4.89333 103.869 5.56C101.789 6.22667 99.9091 7.10667 98.2291 8.2C97.8824 8.44 97.5091 8.56 97.1091 8.56C96.6557 8.56 96.2957 8.37333 96.0291 8C95.7624 7.6 95.6291 7.12 95.6291 6.56C95.6291 5.92 95.7357 5.4 95.9491 5C96.1624 4.57333 96.5224 4.18667 97.0291 3.84C98.8691 2.58667 101.029 1.64 103.509 1C105.989 0.333334 108.376 9.53674e-07 110.669 9.53674e-07C113.922 9.53674e-07 116.736 0.573334 119.109 1.72C121.482 2.84 123.309 4.49333 124.589 6.68C125.869 8.86667 126.509 11.5067 126.509 14.6C126.509 18.6267 125.709 22.1467 124.109 25.16C122.509 28.1467 120.176 30.4667 117.109 32.12C114.042 33.7733 110.389 34.6 106.149 34.6ZM140.347 34.72C136.8 34.72 133.96 34.0533 131.827 32.72C129.693 31.36 128.627 29.2933 128.627 26.52C128.627 25.0533 128.88 23.9333 129.387 23.16C129.893 22.3867 130.64 22 131.627 22C132.347 22 132.933 22.1867 133.387 22.56C133.84 22.9333 134.067 23.4133 134.067 24C134.067 24.5333 134.027 25 133.947 25.4C133.947 25.5067 133.92 25.6933 133.867 25.96C133.84 26.2267 133.827 26.5067 133.827 26.8C133.827 28 134.427 28.8933 135.627 29.48C136.853 30.0667 138.56 30.36 140.747 30.36C143.013 30.36 144.787 29.96 146.067 29.16C147.347 28.3333 147.987 27.1867 147.987 25.72C147.987 24.8133 147.693 24.04 147.107 23.4C146.52 22.7333 145.787 22.1867 144.907 21.76C144.027 21.3067 142.787 20.76 141.187 20.12C139.133 19.32 137.453 18.56 136.147 17.84C134.867 17.12 133.76 16.1467 132.827 14.92C131.92 13.6667 131.467 12.12 131.467 10.28C131.467 8.36 131.973 6.65333 132.987 5.16C134.027 3.66667 135.507 2.50667 137.427 1.68C139.373 0.853334 141.653 0.44 144.267 0.44C146.213 0.44 148 0.733334 149.627 1.32C151.253 1.88 152.547 2.74667 153.507 3.92C154.493 5.09333 154.987 6.53333 154.987 8.24C154.987 9.92 154.733 11.1867 154.227 12.04C153.72 12.8933 152.973 13.32 151.987 13.32C151.293 13.32 150.707 13.1067 150.227 12.68C149.773 12.2533 149.547 11.7467 149.547 11.16C149.547 10.6533 149.587 10.1867 149.667 9.76C149.747 8.96 149.787 8.45333 149.787 8.24C149.787 7.12 149.24 6.26667 148.147 5.68C147.053 5.09333 145.693 4.8 144.067 4.8C141.773 4.8 140.013 5.22667 138.787 6.08C137.587 6.90667 136.987 8.08 136.987 9.6C136.987 10.6133 137.293 11.48 137.907 12.2C138.547 12.92 139.333 13.52 140.267 14C141.2 14.48 142.507 15.0533 144.187 15.72C146.213 16.5467 147.84 17.2933 149.067 17.96C150.293 18.6267 151.333 19.5333 152.187 20.68C153.067 21.8267 153.507 23.24 153.507 24.92C153.507 28.0667 152.307 30.4933 149.907 32.2C147.533 33.88 144.347 34.72 140.347 34.72Z" fill="black"/>
</svg>
